# xmcd
#
# Track frame offsets: 
#        150
#        5180
#        17155
#        33960
#        59204
#        79083
#        98286
#        113760
#        146450
#        167981
#        186114
#        214146
#
# Disc length: 2909 seconds
#
# Revision: 2
# Processed by: cddbd v1.5.2PL0 Copyright (c) Steve Scherf et al.
# Submitted via: ExactAudioCopyFreeDBPlugin 1.0
#
DISCID=a00b5b0c
DTITLE=Ryan McGarvey - Heavy Hearted
DYEAR=2018
DGENRE=Blues Rock
TTITLE0=Prelude
TTITLE1=Feelin' Like I Do
TTITLE2=Right Side Of The Dirt
TTITLE3=I Shoulda Known Better
TTITLE4=Break My Heart
TTITLE5=Houston
TTITLE6=Six Feet In The Ground
TTITLE7=Ain't Enough Whiskey
TTITLE8=A Walk In The Rain
TTITLE9=Surrender
TTITLE10=Who Would've Thought
TTITLE11=Conclusion
EXTD=
EXTT0=
EXTT1=
EXTT2=
EXTT3=
EXTT4=
EXTT5=
EXTT6=
EXTT7=
EXTT8=
EXTT9=
EXTT10=
EXTT11=
PLAYORDER=
